<svg width="30" height="33" viewBox="0 0 30 33" fill="none" xmlns="http://www.w3.org/2000/svg">
<path d="M12.2727 16.5714C12.2727 18.0777 13.4938 19.2987 15 19.2987C16.5062 19.2987 17.7273 18.0777 17.7273 16.5714C17.7273 15.0652 16.5062 13.8442 15 13.8442C13.4938 13.8442 12.2727 15.0652 12.2727 16.5714Z" fill="#571515"/>
<path fill-rule="evenodd" clip-rule="evenodd" d="M19.0532 3.51655C18.2157 -0.895125 11.7843 -0.895125 10.9468 3.51655C10.4827 5.96108 7.9081 7.4218 5.52178 6.5945C1.21515 5.10144 -2.00055 10.5749 1.46855 13.4935C3.39079 15.1107 3.39079 18.0322 1.46855 19.6494C-2.00055 22.568 1.21515 28.0414 5.52178 26.5484C7.9081 25.7211 10.4827 27.1818 10.9468 29.6263C11.7843 34.038 18.2157 34.038 19.0532 29.6263C19.5173 27.1818 22.0919 25.7211 24.4782 26.5484C28.7849 28.0414 32.0005 22.568 28.5315 19.6494C26.6092 18.0322 26.6092 15.1107 28.5315 13.4935C32.0005 10.5749 28.7849 5.10144 24.4782 6.5945C22.0919 7.4218 19.5173 5.96108 19.0532 3.51655ZM9.54545 16.5714C9.54545 19.5839 11.9875 22.026 15 22.026C18.0125 22.026 20.4545 19.5839 20.4545 16.5714C20.4545 13.559 18.0125 11.1169 15 11.1169C11.9875 11.1169 9.54545 13.559 9.54545 16.5714Z" fill="#571515"/>
</svg>
