<svg width="25" height="22" viewBox="0 0 25 22" fill="none" xmlns="http://www.w3.org/2000/svg">
<path d="M9.76562 21.4923H0V10.1758C0 7.13374 0.651042 4.82177 1.95312 3.23989C3.38542 1.59717 5.79427 0.654133 9.17969 0.410767V5.79523C8.00781 5.79523 7.03125 6.25154 6.25 7.16416C5.85937 7.65089 5.66406 8.59393 5.66406 9.99329V11.7273H9.76562V21.4923ZM25 21.4923H15.2344V10.1758C15.2344 7.13374 15.8203 4.91303 16.9922 3.51368C18.5547 1.68844 21.0286 0.654133 24.4141 0.410767V5.79523C22.3958 5.79523 21.2565 6.73827 20.9961 8.62436C20.931 8.86772 20.8984 9.32403 20.8984 9.99329V11.7273H25V21.4923Z" fill="#3D194E"/>
</svg>
