<svg width="27" height="27" viewBox="0 0 27 27" fill="none" xmlns="http://www.w3.org/2000/svg">
<path d="M6.58875 9.13867H1.41711V25.6307H6.58875V9.13867Z" stroke="white" stroke-width="1.41428"/>
<path d="M20.5783 8.78111C20.3876 8.75728 20.185 8.74536 19.9825 8.73344C17.0868 8.61428 15.4543 10.3302 14.8823 11.069C14.7274 11.2716 14.6559 11.3908 14.6559 11.3908V9.18626H9.71069V25.6783H14.6559H14.8823C14.8823 23.9981 14.8823 22.3298 14.8823 20.6497C14.8823 19.744 14.8823 18.8384 14.8823 17.9328C14.8823 16.8126 14.7989 15.621 15.359 14.5962C15.8356 13.7383 16.6936 13.3093 17.6588 13.3093C20.5187 13.3093 20.5783 15.8951 20.5783 16.1334C20.5783 16.1453 20.5783 16.1572 20.5783 16.1572V25.7498H25.7499V14.9895C25.7499 11.3073 23.8791 9.13859 20.5783 8.78111Z" stroke="white" stroke-width="1.41428"/>
<path d="M4.00288 7.00577C5.66133 7.00577 7.00577 5.66133 7.00577 4.00289C7.00577 2.34444 5.66133 1 4.00288 1C2.34443 1 1 2.34444 1 4.00289C1 5.66133 2.34443 7.00577 4.00288 7.00577Z" stroke="white" stroke-width="1.41428"/>
</svg>
