<svg width="19" height="19" viewBox="0 0 19 19" fill="none" xmlns="http://www.w3.org/2000/svg">
<path d="M17.3345 5.86501C16.9049 4.91557 16.2881 4.06316 15.505 3.32855C14.7219 2.60088 13.814 2.02567 12.8022 1.62372C11.7557 1.20791 10.6469 1 9.50339 1C8.35991 1 7.25106 1.20791 6.2046 1.62372C5.19279 2.02567 4.28493 2.59395 3.50182 3.32855C2.7187 4.06316 2.10192 4.91557 1.67224 5.86501C1.22871 6.84911 1 7.9025 1 8.98361C1 10.8756 1.70688 12.6913 3.00283 14.1328L2.3098 17.9097L5.99669 16.2673C7.0986 16.7385 8.26981 16.9742 9.49645 16.9742C10.6399 16.9742 11.7488 16.7662 12.7952 16.3504C13.8071 15.9485 14.7149 15.3802 15.498 14.6456C16.2811 13.911 16.8979 13.0586 17.3276 12.1091C17.7711 11.125 17.9998 10.0717 17.9998 8.99054C18.0068 7.9025 17.7781 6.85604 17.3345 5.86501Z" stroke="white"/>
<path d="M12.5482 10.4508C12.2303 10.2918 11.9979 10.194 11.8328 10.1328C11.7288 10.0961 11.4842 9.98605 11.3986 10.0533C11.1296 10.2734 10.8422 10.8972 10.5364 11.0134C9.77818 10.8666 9.07497 10.3468 8.52463 9.81483C8.28004 9.58247 7.82753 8.92206 7.7297 8.74472C7.71135 8.56128 8.04154 8.31668 8.11492 8.17604C8.49405 7.748 8.20666 7.47894 8.15774 7.30161C8.07213 7.11816 7.92538 6.78796 7.79697 6.5189C7.6869 6.34157 7.66241 6.07863 7.46674 5.98079C6.63511 5.55275 6.15817 6.40883 5.9625 6.85522C4.78232 9.69865 11.8756 15.1103 13.3187 11.3802C13.3921 11.0562 13.3615 10.9339 13.2514 10.7871C13.0313 10.6342 12.7745 10.567 12.5482 10.4508Z" fill="white" stroke="white"/>
</svg>
