<svg width="87" height="63" viewBox="0 0 87 63" fill="none" xmlns="http://www.w3.org/2000/svg">
<path d="M85.9386 17.0971C85.4107 11.8265 84.2661 6.00586 80.0579 2.94319C76.7938 0.569032 72.5085 0.481995 68.5084 0.485952C60.0496 0.493866 51.5907 0.501803 43.1319 0.509717C34.9967 0.517631 26.8617 0.52552 18.7265 0.533434C15.3276 0.533434 12.0249 0.264364 8.86878 1.77196C6.15578 3.06983 4.03622 5.53502 2.76451 8.27718C0.991813 12.0956 0.618054 16.4166 0.406101 20.6386C0.0130255 28.323 0.0554424 36.0311 0.529446 43.7075C0.872423 49.3145 1.74716 55.5071 5.96694 59.0802C9.70887 62.2457 14.9884 62.4001 19.8363 62.404C35.2357 62.4159 50.635 62.4278 66.0344 62.4436C68.0075 62.4436 70.0691 62.408 72.0808 62.1825C76.0424 61.7432 79.8151 60.5799 82.3585 57.5687C84.9251 54.5337 85.5841 50.3037 85.9772 46.3033C86.9252 36.6009 86.9136 26.7956 85.9386 17.0971ZM34.226 45.0727V17.8569L57.1825 31.4648L34.226 45.0727Z" fill="white"/>
</svg>
