<svg width="49" height="48" viewBox="0 0 49 48" fill="none" xmlns="http://www.w3.org/2000/svg">
<path d="M15.1107 17.3499C18.1233 25.5684 21.2422 28.8475 29.1766 32.3402L25.7381 37.1694C16.6269 32.8073 12.0888 25.4544 9.9515 19.7162L15.1107 17.3499Z" fill="#551512"/>
<path d="M17.6968 6.00107C19.3077 5.99477 20.5326 7.33524 20.4228 8.85311C20.25 11.2417 20.434 12.9651 20.9294 15.1012C21.2015 16.2746 20.5859 17.4664 19.6075 18.234C18.2889 19.2686 17.2814 20.5869 16.4808 21.7218C15.371 23.2947 11.5518 23.1817 10.7072 21.4681C8.9714 17.9464 7.79505 11.4582 10.3298 7.07469C10.728 6.38614 11.5297 6.02519 12.3604 6.02194L17.6968 6.00107Z" fill="#551512"/>
<path d="M42.1504 32.0622C42.3507 30.5526 41.0889 29.243 39.4802 29.1634C36.9485 29.0382 35.1591 28.6584 32.9732 27.9371C31.7725 27.5408 30.4457 27.9747 29.5212 28.7996C28.275 29.9115 26.7681 30.6975 25.4788 31.3117C23.6919 32.163 23.3514 35.7573 25.0511 36.7552C28.5443 38.8061 35.2231 40.6893 40.1358 38.84C40.9075 38.5495 41.3833 37.8413 41.4867 37.0628L42.1504 32.0622Z" fill="#551512"/>
</svg>
