<svg width="46" height="34" viewBox="0 0 46 34" fill="none" xmlns="http://www.w3.org/2000/svg">
<path fill-rule="evenodd" clip-rule="evenodd" d="M41.7798 0C43.1581 0 44.3821 0.630465 45.1523 1.60564L22.7845 19.5052L0.616066 1.93068C1.35728 0.772833 2.69414 0 4.22018 0H41.7798ZM0 29.7969V5.10689L15.9065 17.7171L0.0327899 30.3013C0.0111532 30.1361 0 29.9677 0 29.7969ZM1.45474 32.8386C2.19539 33.4522 3.16233 33.8235 4.22018 33.8235H41.7798C42.689 33.8235 43.5311 33.5492 44.2201 33.0825L27.3176 19.5565L24.278 21.9888C23.4184 22.6768 22.1661 22.6795 21.3031 21.9954L18.2177 19.5494L1.45474 32.8386ZM29.6161 17.7171L45.8847 30.7358C45.9601 30.4346 46 30.1202 46 29.7969V4.60604L29.6161 17.7171Z" fill="#551512"/>
</svg>
