<svg width="18" height="18" viewBox="0 0 18 18" fill="none" xmlns="http://www.w3.org/2000/svg">
<path d="M14.3257 17H3.67433C2.20246 17 1 15.7975 1 14.3257V3.67433C1 2.20246 2.20246 1 3.67433 1H14.3257C15.7975 1 17 2.20246 17 3.67433V14.3257C17 15.8041 15.8041 17 14.3257 17Z" stroke="white"/>
<path d="M6.09898 11.9073C6.87434 12.6827 7.90596 13.1098 9.00329 13.1098C10.1006 13.1098 11.1257 12.6827 11.9076 11.9073C12.683 11.132 13.1101 10.1003 13.1101 9.00302C13.1101 7.90569 12.683 6.87406 11.9076 6.0987C11.1322 5.32335 10.1006 4.89624 9.00329 4.89624C7.90596 4.89624 6.87434 5.32335 6.09898 6.0987C5.32362 6.87406 4.89651 7.90569 4.89651 9.00302C4.89651 10.1003 5.32362 11.132 6.09898 11.9073Z" stroke="white"/>
<path d="M13.9105 4.76137C14.346 4.76137 14.6991 4.40834 14.6991 3.97285C14.6991 3.53736 14.346 3.18433 13.9105 3.18433C13.4751 3.18433 13.122 3.53736 13.122 3.97285C13.122 4.40834 13.4751 4.76137 13.9105 4.76137Z" stroke="white"/>
</svg>
